<svg width="990" height="659" fill="none" xmlns="http://www.w3.org/2000/svg"><g clip-path="url(#clip0_5368_37982)"><path d="M297.5 557.754c99.135 0 179.5-80.365 179.5-179.5s-80.365-179.5-179.5-179.5S118 279.119 118 378.254s80.365 179.5 179.5 179.5z" stroke="#fff" stroke-width="2" stroke-dasharray="6 6"/><g filter="url(#filter0_d_5368_37982)"><path d="M168 298.355c27.614 0 50-22.385 50-50 0-27.614-22.386-50-50-50s-50 22.386-50 50c0 27.615 22.386 50 50 50z" fill="#fff"/><path d="M217.583 248.355c0 27.385-22.199 49.584-49.583 49.584-27.384 0-49.583-22.199-49.583-49.584 0-27.384 22.199-49.583 49.583-49.583 27.384 0 49.583 22.199 49.583 49.583z" stroke="#E1E2E6" stroke-width=".833"/></g><path d="M169.904 254.893l-5.558-5.345.065-.064c3.808-4.131 6.522-8.88 8.12-13.905h6.412v-4.259h-15.319v-4.259h-4.377v4.259h-15.319v4.237h24.445a33.279 33.279 0 01-6.938 11.414 33.301 33.301 0 01-5.055-7.133h-4.377c1.598 3.471 3.786 6.75 6.522 9.71l-11.14 10.69 3.108 3.024 10.942-10.647 6.806 6.622 1.663-4.344zm12.321-10.796h-4.377L168 269.651h4.377l2.451-6.389h10.395l2.473 6.389h4.377l-9.848-25.554zm-5.733 14.906l3.545-9.221 3.545 9.221h-7.09z" fill="url(#paint0_linear_5368_37982)"/><g filter="url(#filter1_d_5368_37982)"><rect x="276" y="118.049" width="534" height="412" rx="11.597" fill="#D1D5E8"/></g><g filter="url(#filter2_d_5368_37982)"><rect x="256" y="98.049" width="534" height="412" rx="11.597" fill="#F5F6FA"/></g><g filter="url(#filter3_d_5368_37982)"><rect x="236" y="78.049" width="534" height="412" rx="11.597" fill="#fff"/></g><path fill="#0068DF" d="M274 203.387h389.598v14.316H274zm0-28.633h457.684v14.316H274z"/><path fill="#E1E2E6" d="M274 298.355h458v5.727H274zm0-11.453h458v5.727H274zm0-11.453h458v5.727H274z"/><path fill="#B8BDC8" d="M274 258.27h330.117v11.453H274z"/><path fill="#E1E2E6" d="M274 309.809h369.814v5.727H274zm0 76.414h326.211v5.727H274zm0-11.453h458v5.727H274zm0-11.454h458v5.727H274zm0-11.453h458v5.727H274zm0-11.453h458v5.727H274zm0-11.453h458v5.727H274z"/><rect x="274" y="63.049" width="153.073" height="76.537" rx="5.798" fill="#F34"/><path d="M332.388 95.619a10.773 10.773 0 01-1.25 5.162 9.343 9.343 0 01-3.839 3.773 13.102 13.102 0 01-6.424 1.436h-4.736v11.665h-7.633V85.148h12.374c2.182-.07 4.35.388 6.333 1.337a9.03 9.03 0 013.884 3.704 11.09 11.09 0 011.291 5.43zm-12.097 4.069a4.447 4.447 0 003.258-1.068c.369-.396.654-.867.838-1.384a4.129 4.129 0 00.229-1.617 4.11 4.11 0 00-.23-1.624 4.002 4.002 0 00-.843-1.39 4.447 4.447 0 00-3.258-1.067h-4.15v8.147l4.156.003zm27.812-14.54a17.686 17.686 0 018.659 2.037 14.27 14.27 0 015.736 5.716 17.298 17.298 0 012.031 8.494 17.33 17.33 0 01-2.031 8.475 14.191 14.191 0 01-5.758 5.741 17.736 17.736 0 01-8.639 2.038h-11.742V85.148h11.744zm-.492 25.651a8.903 8.903 0 003.61-.521 9.157 9.157 0 003.133-1.933 9.356 9.356 0 001.899-3.214 9.599 9.599 0 00.512-3.731 9.766 9.766 0 00-.516-3.752 9.52 9.52 0 00-1.895-3.24 9.055 9.055 0 00-3.123-1.966 8.816 8.816 0 00-3.618-.534h-3.615v18.891h3.613zm41.604-25.651v6.34h-12.767v6.855h9.549v6.153h-9.549v13.159h-7.63V85.148h20.397z" fill="#fff"/><g filter="url(#filter4_d_5368_37982)"><circle cx="859.152" cy="286.902" r="60" fill="url(#paint1_linear_5368_37982)"/><path d="M851.448 300.617h-11.769l-2.08 6.285h-6.197l10.814-30.896h6.696l10.771 30.896h-6.197l-2.038-6.285zm-1.58-4.736l-4.325-13.191-4.326 13.191h8.651zm18.844-20.229v31.25h-5.864v-31.25h5.864zm8.425-18.75l2.601 7.756 7.028 2.869-7.028 2.87-2.601 7.755-2.6-7.755-7.028-2.87 7.028-2.869 2.6-7.756z" fill="#fff"/></g><g filter="url(#filter5_bd_5368_37982)"><rect x="564.962" y="373.039" width="300" height="86" rx="5" fill="url(#paint2_linear_5368_37982)" fill-opacity=".6" shape-rendering="crispEdges"/><rect x="563.962" y="372.039" width="302" height="88" rx="6" stroke="url(#paint3_linear_5368_37982)" stroke-width="2" shape-rendering="crispEdges"/><path fill="#fff" d="M579.962 388.039h267.435v8H579.962zm0 16h267.435v8H579.962zm0 16h247.649v8H579.962zm0 16h180.957v8H579.962z"/></g><mask id="mask0_5368_37982" style="mask-type:luminance" maskUnits="userSpaceOnUse" x="142" y="355" width="48" height="48"><path d="M181.534 355.322h-31.278a7.82 7.82 0 00-7.82 7.82v31.278a7.82 7.82 0 007.82 7.82h31.278a7.82 7.82 0 007.819-7.82v-31.278a7.82 7.82 0 00-7.819-7.82z" fill="#fff"/></mask><g mask="url(#mask0_5368_37982)"><path d="M189.353 355.322h-46.917v46.918h46.917v-46.918z" fill="#fff"/><path d="M189.353 374.382v8.797h-19.079v19.061h-8.797v-19.061h-19.041v-8.797h19.041v-19.06h8.797v19.06h19.079z" fill="#E13838"/><path d="M189.353 387.285v2.326l-4.164-2.326h4.164zm-46.917-.097v2.326l4.164-2.326h-4.164z" fill="#0460BE"/><path d="M189.354 391.488v4.242l-15.19-8.445h7.605l7.585 4.203z" fill="#0052B4"/><path d="M189.354 399.719v2.521h-15.19v-10.967l15.19 8.446z" fill="#0460BE"/><path d="M189.354 391.488v4.242l-15.19-8.445h7.605l7.585 4.203z" fill="#F0F0F0"/><path d="M189.354 391.488v4.242l-15.19-8.445h7.605l7.585 4.203z" fill="#E13838"/><path d="M157.586 389.201v13.039h-15.15v-4.633l15.15-8.406z" fill="#0460BE"/><path d="M157.586 387.305l-15.15 8.406v-4.223l7.546-4.203" fill="#E13838"/><path d="M146.561 370.277h-4.125v-2.287l4.125 2.287zm38.668.04h4.124v-2.288l-4.124 2.288z" fill="#0460BE"/><path d="M157.586 370.277h-7.604l-7.546-4.203v-4.222l15.15 8.425z" fill="#0052B4"/><path d="M157.606 355.322v10.967l-15.17-8.425v-2.542h15.17z" fill="#0460BE"/><path d="M157.586 370.258v.019h-7.604l-7.546-4.203v-4.222l15.15 8.406z" fill="#F0F0F0"/><path d="M157.586 370.258v.019h-7.604l-7.546-4.203v-4.222l15.15 8.406z" fill="#E13838"/><path d="M189.354 355.322v4.594l-15.19 8.445v-13.039h15.19z" fill="#0460BE"/><path d="M189.354 361.832v4.223l-7.585 4.203h-7.605l15.19-8.426z" fill="#E13838"/></g><g filter="url(#filter6_d_5368_37982)"><rect x="124.842" y="418.902" width="82.105" height="80.239" rx="7.176" fill="#fff" shape-rendering="crispEdges"/><rect x="125.842" y="419.902" width="80.105" height="78.239" rx="6.176" stroke="url(#paint4_linear_5368_37982)" stroke-width="2" shape-rendering="crispEdges"/><path d="M150.256 435.562h31.278a7.816 7.816 0 017.819 7.82v7.82h-46.917v-7.82a7.82 7.82 0 017.82-7.82z" fill="#131313"/><path d="M189.353 451.201h-46.917v15.639h46.917v-15.639z" fill="#E13838"/><path d="M142.436 466.84h46.917v7.819a7.82 7.82 0 01-7.819 7.82h-31.278a7.824 7.824 0 01-5.53-2.29 7.824 7.824 0 01-2.29-5.53v-7.819z" fill="#FFD040"/></g><path d="M150.256 515.801h7.819v46.917h-7.819a7.824 7.824 0 01-5.53-2.29 7.823 7.823 0 01-2.29-5.529V523.62a7.821 7.821 0 017.82-7.819z" fill="#0460BE"/><path d="M173.714 515.801h7.82a7.82 7.82 0 017.819 7.819v31.279a7.819 7.819 0 01-7.819 7.819h-7.82v-46.917z" fill="#E13838"/><path d="M173.714 515.801h-15.639v46.917h15.639v-46.917z" fill="#fff"/></g><defs><filter id="filter0_d_5368_37982" x="105.5" y="190.022" width="125" height="125" filterUnits="userSpaceOnUse" color-interpolation-filters="sRGB"><feFlood flood-opacity="0" result="BackgroundImageFix"/><feColorMatrix in="SourceAlpha" values="0 0 0 0 0 0 0 0 0 0 0 0 0 0 0 0 0 0 127 0" result="hardAlpha"/><feOffset dy="4.167"/><feGaussianBlur stdDeviation="6.25"/><feComposite in2="hardAlpha" operator="out"/><feColorMatrix values="0 0 0 0 0 0 0 0 0 0.156863 0 0 0 0 0.294118 0 0 0 0.15 0"/><feBlend in2="BackgroundImageFix" result="effect1_dropShadow_5368_37982"/><feBlend in="SourceGraphic" in2="effect1_dropShadow_5368_37982" result="shape"/></filter><filter id="filter1_d_5368_37982" x="218.018" y="65.865" width="649.965" height="527.965" filterUnits="userSpaceOnUse" color-interpolation-filters="sRGB"><feFlood flood-opacity="0" result="BackgroundImageFix"/><feColorMatrix in="SourceAlpha" values="0 0 0 0 0 0 0 0 0 0 0 0 0 0 0 0 0 0 127 0" result="hardAlpha"/><feOffset dy="5.798"/><feGaussianBlur stdDeviation="28.991"/><feComposite in2="hardAlpha" operator="out"/><feColorMatrix values="0 0 0 0 0 0 0 0 0 0.156863 0 0 0 0 0.294118 0 0 0 0.2 0"/><feBlend in2="BackgroundImageFix" result="effect1_dropShadow_5368_37982"/><feBlend in="SourceGraphic" in2="effect1_dropShadow_5368_37982" result="shape"/></filter><filter id="filter2_d_5368_37982" x="238.605" y="86.452" width="568.789" height="446.789" filterUnits="userSpaceOnUse" color-interpolation-filters="sRGB"><feFlood flood-opacity="0" result="BackgroundImageFix"/><feColorMatrix in="SourceAlpha" values="0 0 0 0 0 0 0 0 0 0 0 0 0 0 0 0 0 0 127 0" result="hardAlpha"/><feOffset dy="5.798"/><feGaussianBlur stdDeviation="8.697"/><feComposite in2="hardAlpha" operator="out"/><feColorMatrix values="0 0 0 0 0 0 0 0 0 0.156863 0 0 0 0 0.294118 0 0 0 0.15 0"/><feBlend in2="BackgroundImageFix" result="effect1_dropShadow_5368_37982"/><feBlend in="SourceGraphic" in2="effect1_dropShadow_5368_37982" result="shape"/></filter><filter id="filter3_d_5368_37982" x="218.605" y="66.452" width="568.789" height="446.789" filterUnits="userSpaceOnUse" color-interpolation-filters="sRGB"><feFlood flood-opacity="0" result="BackgroundImageFix"/><feColorMatrix in="SourceAlpha" values="0 0 0 0 0 0 0 0 0 0 0 0 0 0 0 0 0 0 127 0" result="hardAlpha"/><feOffset dy="5.798"/><feGaussianBlur stdDeviation="8.697"/><feComposite in2="hardAlpha" operator="out"/><feColorMatrix values="0 0 0 0 0 0 0 0 0 0.156863 0 0 0 0 0.294118 0 0 0 0.15 0"/><feBlend in2="BackgroundImageFix" result="effect1_dropShadow_5368_37982"/><feBlend in="SourceGraphic" in2="effect1_dropShadow_5368_37982" result="shape"/></filter><filter id="filter4_d_5368_37982" x="784.152" y="217.902" width="150" height="150" filterUnits="userSpaceOnUse" color-interpolation-filters="sRGB"><feFlood flood-opacity="0" result="BackgroundImageFix"/><feColorMatrix in="SourceAlpha" values="0 0 0 0 0 0 0 0 0 0 0 0 0 0 0 0 0 0 127 0" result="hardAlpha"/><feOffset dy="6"/><feGaussianBlur stdDeviation="7.5"/><feComposite in2="hardAlpha" operator="out"/><feColorMatrix values="0 0 0 0 0.666667 0 0 0 0 0.223529 0 0 0 0 0.890196 0 0 0 0.4 0"/><feBlend in2="BackgroundImageFix" result="effect1_dropShadow_5368_37982"/><feBlend in="SourceGraphic" in2="effect1_dropShadow_5368_37982" result="shape"/></filter><filter id="filter5_bd_5368_37982" x="538.538" y="346.615" width="352.848" height="138.848" filterUnits="userSpaceOnUse" color-interpolation-filters="sRGB"><feFlood flood-opacity="0" result="BackgroundImageFix"/><feGaussianBlur in="BackgroundImageFix" stdDeviation="12.212"/><feComposite in2="SourceAlpha" operator="in" result="effect1_backgroundBlur_5368_37982"/><feColorMatrix in="SourceAlpha" values="0 0 0 0 0 0 0 0 0 0 0 0 0 0 0 0 0 0 127 0" result="hardAlpha"/><feOffset dy="3.392"/><feGaussianBlur stdDeviation="5.088"/><feComposite in2="hardAlpha" operator="out"/><feColorMatrix values="0 0 0 0 0 0 0 0 0 0.156863 0 0 0 0 0.294118 0 0 0 0.15 0"/><feBlend in2="effect1_backgroundBlur_5368_37982" result="effect2_dropShadow_5368_37982"/><feBlend in="SourceGraphic" in2="effect2_dropShadow_5368_37982" result="shape"/></filter><filter id="filter6_d_5368_37982" x="88.962" y="390.198" width="153.867" height="152" filterUnits="userSpaceOnUse" color-interpolation-filters="sRGB"><feFlood flood-opacity="0" result="BackgroundImageFix"/><feColorMatrix in="SourceAlpha" values="0 0 0 0 0 0 0 0 0 0 0 0 0 0 0 0 0 0 127 0" result="hardAlpha"/><feOffset dy="7.176"/><feGaussianBlur stdDeviation="17.94"/><feComposite in2="hardAlpha" operator="out"/><feColorMatrix values="0 0 0 0 0 0 0 0 0 0.156863 0 0 0 0 0.294118 0 0 0 0.2 0"/><feBlend in2="BackgroundImageFix" result="effect1_dropShadow_5368_37982"/><feBlend in="SourceGraphic" in2="effect1_dropShadow_5368_37982" result="shape"/></filter><linearGradient id="paint0_linear_5368_37982" x1="146.937" y1="227.061" x2="186.258" y2="274.474" gradientUnits="userSpaceOnUse"><stop stop-color="#0068DF"/><stop offset=".696" stop-color="#AA39E3"/></linearGradient><linearGradient id="paint1_linear_5368_37982" x1="806.652" y1="226.902" x2="919.152" y2="346.902" gradientUnits="userSpaceOnUse"><stop stop-color="#0068DF"/><stop offset=".696" stop-color="#AA39E3"/></linearGradient><linearGradient id="paint2_linear_5368_37982" x1="583.712" y1="373.039" x2="624.213" y2="523.74" gradientUnits="userSpaceOnUse"><stop stop-color="#0068DF"/><stop offset=".696" stop-color="#AA39E3"/></linearGradient><linearGradient id="paint3_linear_5368_37982" x1="583.712" y1="373.039" x2="624.213" y2="523.74" gradientUnits="userSpaceOnUse"><stop stop-color="#0068DF"/><stop offset=".696" stop-color="#AA39E3"/></linearGradient><linearGradient id="paint4_linear_5368_37982" x1="221.609" y1="366.227" x2="109.008" y2="543.34" gradientUnits="userSpaceOnUse"><stop stop-color="#fff" stop-opacity=".4"/><stop offset=".741" stop-color="#0068DF"/></linearGradient><clipPath id="clip0_5368_37982"><path fill="#fff" transform="translate(52 63.049)" d="M0 0h885v531H0z"/></clipPath></defs></svg>